<?xml version="1.0" encoding="UTF-8"?>
<svg xmlns="http://www.w3.org/2000/svg" xmlns:xlink="http://www.w3.org/1999/xlink" width="15px" height="15px" viewBox="0 0 15 15" version="1.1">
<g id="surface1">
<path style=" stroke:none;fill-rule:nonzero;fill:rgb(0%,0%,0%);fill-opacity:1;" d="M 7.496094 0 C 9.644531 0 11.78125 0 13.929688 0 C 13.996094 0 14.074219 0 14.140625 0 C 14.582031 0.0273438 14.921875 0.488281 14.921875 1.074219 C 14.921875 1.648438 14.582031 2.105469 14.128906 2.132812 C 14.0625 2.132812 13.984375 2.132812 13.917969 2.132812 C 9.632812 2.132812 5.355469 2.132812 1.070312 2.132812 C 1.003906 2.132812 0.925781 2.132812 0.859375 2.132812 C 0.417969 2.105469 0.078125 1.632812 0.078125 1.058594 C 0.078125 0.488281 0.417969 0.0273438 0.871094 0 C 0.9375 0 1.003906 0 1.082031 0 C 3.21875 0 5.355469 0 7.496094 0 Z M 7.496094 0 "/>
<path style=" stroke:none;fill-rule:nonzero;fill:rgb(0%,0%,0%);fill-opacity:1;" d="M 7.484375 8.566406 C 5.355469 8.566406 3.21875 8.566406 1.089844 8.566406 C 1.015625 8.566406 0.9375 8.566406 0.859375 8.566406 C 0.410156 8.539062 0.078125 8.066406 0.078125 7.492188 C 0.078125 6.933594 0.417969 6.476562 0.847656 6.445312 C 0.914062 6.445312 0.992188 6.445312 1.058594 6.445312 C 5.34375 6.445312 9.644531 6.445312 13.929688 6.445312 C 13.996094 6.445312 14.074219 6.445312 14.140625 6.445312 C 14.570312 6.476562 14.910156 6.933594 14.910156 7.492188 C 14.910156 8.066406 14.570312 8.539062 14.140625 8.566406 C 14.074219 8.566406 13.996094 8.566406 13.929688 8.566406 C 11.78125 8.566406 9.632812 8.566406 7.472656 8.566406 Z M 7.484375 8.566406 "/>
<path style=" stroke:none;fill-rule:nonzero;fill:rgb(0%,0%,0%);fill-opacity:1;" d="M 7.496094 12.867188 C 9.644531 12.867188 11.78125 12.867188 13.929688 12.867188 C 13.996094 12.867188 14.074219 12.867188 14.140625 12.867188 C 14.582031 12.894531 14.921875 13.367188 14.921875 13.941406 C 14.921875 14.5 14.582031 14.972656 14.152344 15 C 14.085938 15 14.007812 15 13.941406 15 C 9.644531 15 5.34375 15 1.046875 15 C 0.980469 15 0.914062 15 0.847656 15 C 0.417969 14.972656 0.078125 14.5 0.078125 13.925781 C 0.078125 13.308594 0.484375 12.851562 0.871094 12.867188 C 0.9375 12.867188 1.015625 12.867188 1.082031 12.867188 C 3.21875 12.867188 5.355469 12.867188 7.496094 12.867188 Z M 7.496094 12.867188 "/>
</g>
</svg>
