<svg xmlns="http://www.w3.org/2000/svg" viewBox="0 0 15 15"><path d="M10.196 14.5c-1.205 0-2.185-.98-2.185-2.185s.98-2.186 2.185-2.186 2.185.98 2.185 2.186-.98 2.185-2.185 2.185Zm0-3.37a1.186 1.186 0 1 0 1.185 1.186c0-.654-.532-1.186-1.185-1.186ZM4.804 14.5c-1.205 0-2.185-.98-2.185-2.185s.98-2.186 2.185-2.186 2.185.98 2.185 2.186-.98 2.185-2.185 2.185Zm0-3.37a1.186 1.186 0 1 0 1.185 1.186c0-.654-.532-1.186-1.185-1.186Z"/><path d="M11.697 13.163c-.098 0-.197-.004-.298-.013l.084-.996c.607.05 1.116-.106 1.46-.458.364-.37.528-.938.461-1.598.014-.315-.073-.55-.24-.727a.835.835 0 0 0-.604-.263c-.178-.021-1.573-.014-2.036-.991-.123-.26-.179-.807-.202-1.11-.123-.717-.775-1.27-1.548-1.27H4.876a1.57 1.57 0 0 0-1.553 1.315l-.178 1.074c-.221.675-.33.788-.917 1.007-.386.121-.709.37-.632 1.423.001.896.699 1.595 1.556 1.595v1a2.559 2.559 0 0 1-2.555-2.558C.501 9.31.94 8.488 1.904 8.187a2.03 2.03 0 0 0 .22-.09c-.032-.023.018-.104.054-.212l.158-.997a2.568 2.568 0 0 1 2.54-2.151h3.898c1.263 0 2.331.904 2.54 2.149.029.362.081.719.116.809.148.312.812.413 1.116.413h.024a1.861 1.861 0 0 1 1.83 1.971c.096.879-.168 1.731-.745 2.317-.49.499-1.178.766-1.959.766Z"/><path d="M6.455 12.152h2.417v1H6.455zM8.352 5.44H5.664V3.672a1.627 1.627 0 0 1 .5-3.173c.302 0 .593.084.844.239.251-.155.542-.239.844-.239a1.627 1.627 0 0 1 .5 3.173V5.44Zm-1.688-1h.688V2.752h.5a.627.627 0 0 0 0-1.252.612.612 0 0 0-.465.214l-.379.443-.379-.443a.612.612 0 0 0-.465-.214.627.627 0 0 0 0 1.252h.5V4.44ZM4.773 6.699H8.75c.342 0 .62.236.62.527v.36c0 .291-.278.527-.62.527H4.773c-.342 0-.62-.236-.62-.527v-.36c0-.291.278-.527.62-.527ZM13.902 9.956v.641c0 .036-.002.071-.004.105-.894-.039-1.59-.342-1.59-.709 0-.344.609-.63 1.418-.698.112.196.176.42.176.661Z"/></svg>