<svg xmlns="http://www.w3.org/2000/svg" width="23.268" height="22.1" viewBox="0 0 23.268 22.1">
  <g id="Group_37129" data-name="Group 37129" transform="translate(-1604.949 -701.95)">
    <path id="Path_46154" data-name="Path 46154" d="M24,7.993V5.333A2.34,2.34,0,0,0,21.667,3H5.333A2.333,2.333,0,0,0,3,5.333V21.667A2.333,2.333,0,0,0,5.333,24H21.667A2.34,2.34,0,0,0,24,21.667v-2.66A2.334,2.334,0,0,0,25.167,17V10A2.32,2.32,0,0,0,24,7.993ZM22.833,10v7H14.667V10ZM5.333,21.667V5.333H21.667V7.667h-7A2.34,2.34,0,0,0,12.333,10v7a2.34,2.34,0,0,0,2.333,2.333h7v2.333Z" transform="translate(1602.5 699.5)" stroke="#f8f8f8" stroke-linecap="round" stroke-linejoin="round" stroke-width="1.1"/>
    <circle id="Ellipse_667" data-name="Ellipse 667" cx="1.75" cy="1.75" r="1.75" transform="translate(1618.916 711.25)"/>
  </g>
</svg>
