<svg width="20" height="19" viewBox="0 0 20 19" fill="none" xmlns="http://www.w3.org/2000/svg">
<g filter="url(#filter0_d_7_412)">
<path d="M13.1184 7.47788C13.2358 7.10457 13.7642 7.10456 13.8816 7.47788L14.3906 9.09628C14.4254 9.20678 14.5063 9.29678 14.6125 9.34302L16.1575 10.0156C16.478 10.1551 16.478 10.6096 16.1575 10.7491L14.6125 11.4217C14.5063 11.468 14.4254 11.558 14.3906 11.6685L13.8816 13.2869C13.7642 13.6602 13.2358 13.6602 13.1184 13.2869L12.6094 11.6685C12.5746 11.558 12.4937 11.468 12.3875 11.4217L10.8425 10.7491C10.522 10.6096 10.522 10.1551 10.8425 10.0156L12.3875 9.34302C12.4937 9.29678 12.5746 9.20678 12.6094 9.09628L13.1184 7.47788Z" fill="url(#paint0_linear_7_412)"/>
</g>
<g filter="url(#filter1_d_7_412)">
<path d="M7.77618 1.90601C7.9291 1.45224 8.5709 1.45225 8.72382 1.90601L9.59476 4.49046C9.64125 4.62839 9.74552 4.73922 9.88037 4.79401L12.3599 5.80148C12.7756 5.97039 12.7756 6.55902 12.3599 6.72793L9.88037 7.7354C9.74552 7.79019 9.64125 7.90102 9.59476 8.03895L8.72382 10.6234C8.5709 11.0772 7.9291 11.0772 7.77618 10.6234L6.90524 8.03895C6.85875 7.90102 6.75448 7.79019 6.61963 7.7354L4.14007 6.72793C3.72435 6.55902 3.72435 5.97039 4.14007 5.80148L6.61963 4.79401C6.75448 4.73922 6.85875 4.62839 6.90524 4.49046L7.77618 1.90601Z" fill="url(#paint1_linear_7_412)"/>
</g>
<defs>
<filter id="filter0_d_7_412" x="7.60217" y="6.19789" width="11.7958" height="12.369" filterUnits="userSpaceOnUse" color-interpolation-filters="sRGB">
<feFlood flood-opacity="0" result="BackgroundImageFix"/>
<feColorMatrix in="SourceAlpha" type="matrix" values="0 0 0 0 0 0 0 0 0 0 0 0 0 0 0 0 0 0 127 0" result="hardAlpha"/>
<feOffset dy="2"/>
<feGaussianBlur stdDeviation="1.5"/>
<feComposite in2="hardAlpha" operator="out"/>
<feColorMatrix type="matrix" values="0 0 0 0 0.945098 0 0 0 0 0.392157 0 0 0 0 0.133333 0 0 0 0.25 0"/>
<feBlend mode="normal" in2="BackgroundImageFix" result="effect1_dropShadow_7_412"/>
<feBlend mode="normal" in="SourceGraphic" in2="effect1_dropShadow_7_412" result="shape"/>
</filter>
<filter id="filter1_d_7_412" x="0.828247" y="0.565689" width="14.8435" height="15.398" filterUnits="userSpaceOnUse" color-interpolation-filters="sRGB">
<feFlood flood-opacity="0" result="BackgroundImageFix"/>
<feColorMatrix in="SourceAlpha" type="matrix" values="0 0 0 0 0 0 0 0 0 0 0 0 0 0 0 0 0 0 127 0" result="hardAlpha"/>
<feOffset dy="2"/>
<feGaussianBlur stdDeviation="1.5"/>
<feComposite in2="hardAlpha" operator="out"/>
<feColorMatrix type="matrix" values="0 0 0 0 0.101961 0 0 0 0 0.788235 0 0 0 0 0.466667 0 0 0 0.25 0"/>
<feBlend mode="normal" in2="BackgroundImageFix" result="effect1_dropShadow_7_412"/>
<feBlend mode="normal" in="SourceGraphic" in2="effect1_dropShadow_7_412" result="shape"/>
</filter>
<linearGradient id="paint0_linear_7_412" x1="13.5" y1="6.26472" x2="13.5" y2="14.5" gradientUnits="userSpaceOnUse">
<stop stop-color="#F16422"/>
<stop offset="1" stop-color="#FF5100"/>
</linearGradient>
<linearGradient id="paint1_linear_7_412" x1="8.25" y1="0.5" x2="8.25" y2="12.0294" gradientUnits="userSpaceOnUse">
<stop stop-color="#1AC977"/>
<stop offset="1" stop-color="#0AEB81"/>
</linearGradient>
</defs>
</svg>
