<svg xmlns="http://www.w3.org/2000/svg" id="Group_35305" width="154.859" height="154.859" viewBox="0 0 154.859 154.859">
    <defs>
        <style>
            .cls-2{fill:#1ac977}
        </style>
    </defs>
    <path id="Path_6774" fill="#dcf7eb" d="M211.71 89.308a79.657 79.657 0 0 1 33.039 5.67 78.809 78.809 0 0 1 24.856 16.352 77.444 77.444 0 0 1-19.934 124.841 84.839 84.839 0 0 1-15 5.541 79.508 79.508 0 0 1-20.322 2.352 81.1 81.1 0 0 1-18.117-2.369 77.444 77.444 0 0 1-48.719-112.073 76.874 76.874 0 0 1 17.269-21.391 79.833 79.833 0 0 1 20.772-12.973 77.167 77.167 0 0 1 20.036-5.316c2.031-.269 4.074-.469 6.116-.634" transform="translate(-138.065 -89.232)"/>
    <g id="Group_7014" transform="translate(37.84 44.452)">
        <path id="Path_6794" d="M83.18 61.312a37.871 37.871 0 1 0-.463-.5 2.136 2.136 0 0 0 .463.5zm26 6.878A31.876 31.876 0 0 1 88.5 60.6c9.381-3.113 12.851-6.9 14.134-9.423a15.244 15.244 0 0 0 5.995 1.22h.484a15.317 15.317 0 0 0 6.436-1.43c1.2 2.524 4.606 6.436 14.261 9.633a31.722 31.722 0 0 1-20.633 7.59zm-11.695-38.7v-.126c.5-10.958 8.582-11.821 11.063-11.821h.673c2.461 0 10.559.862 11.063 11.821v.126c.021.105 1.052 10.243-3.681 15.565a9.726 9.726 0 0 1-7.635 3.176h-.126a9.765 9.765 0 0 1-7.635-3.176c-4.755-5.281-3.745-15.461-3.724-15.566zm11.692-25.325a32 32 0 0 1 24.041 53.13c-13.588-3.954-14.113-8.75-14.113-8.813v.105h-.147c.252-.252.5-.5.757-.778 5.784-6.5 4.817-17.626 4.711-18.72-.568-11.61-8.54-15.733-15.207-15.733h-.673c-6.668 0-14.66 4.123-15.207 15.733-.105 1.073-1.052 12.2 4.711 18.72.337.379.694.736 1.052 1.073-.442 1.22-2.671 5.09-13.966 8.392a31.982 31.982 0 0 1 24.041-53.109z" class="cls-2" transform="translate(-73 0)"/>
    </g>
    <g id="Group_7015" transform="translate(84.797 34.546)">
        <path id="Path_6778" fill="#9fe8c6" d="M461.023 218.2a20.671 20.671 0 0 1 25.742.687 21.675 21.675 0 0 1 6.356 10.289c.847 2.7.586 5.577.5 8.363a22.035 22.035 0 0 1-3.169 8.247 20.381 20.381 0 0 1-9.534 7.64c-.889.345-1.766.725-2.685.984a17.4 17.4 0 0 1-4.233.541 21.541 21.541 0 0 1-13.467-4.629 17.961 17.961 0 0 1-4.141-4.548 20.423 20.423 0 0 1-2.979-15.355 17.732 17.732 0 0 1 1.362-4.186l.44-.449a4.876 4.876 0 0 1 .993-2.322 23.516 23.516 0 0 1 4.819-5.262m18.815 9.287c-2.9 2.916-5.824 5.812-8.731 8.722-.978-.96-1.944-1.935-2.916-2.9a2.563 2.563 0 0 0-1.516-.889 1.936 1.936 0 0 0-2.12 2.131 2.7 2.7 0 0 0 1.026 1.677c1.249 1.222 2.476 2.461 3.713 3.692a2.913 2.913 0 0 0 1.546.972 2.248 2.248 0 0 0 1.944-.841q4.99-4.99 9.989-9.965a2.4 2.4 0 0 0 .895-1.51 1.942 1.942 0 0 0-2.111-2.182 3.033 3.033 0 0 0-1.723 1.097z" transform="translate(-450.315 -210.768)"/>
        <path id="Path_6779" fill="#fff" d="M461.023 218.2a20.671 20.671 0 0 1 25.742.687 21.675 21.675 0 0 1 6.356 10.289c.847 2.7.586 5.577.5 8.363a22.035 22.035 0 0 1-3.169 8.247 20.381 20.381 0 0 1-9.534 7.64c-.889.345-1.766.725-2.685.984a17.4 17.4 0 0 1-4.233.541 21.541 21.541 0 0 1-13.467-4.629 17.961 17.961 0 0 1-4.141-4.548 20.423 20.423 0 0 1-2.979-15.355 17.732 17.732 0 0 1 1.362-4.186l.44-.449a4.876 4.876 0 0 1 .993-2.322 23.516 23.516 0 0 1 4.819-5.262m18.815 9.287c-2.9 2.916-5.824 5.812-8.731 8.722-.978-.96-1.944-1.935-2.916-2.9a2.563 2.563 0 0 0-1.516-.889 1.936 1.936 0 0 0-2.12 2.131 2.7 2.7 0 0 0 1.026 1.677c1.249 1.222 2.476 2.461 3.713 3.692a2.913 2.913 0 0 0 1.546.972 2.248 2.248 0 0 0 1.944-.841q4.99-4.99 9.989-9.965a2.4 2.4 0 0 0 .895-1.51 1.942 1.942 0 0 0-2.111-2.182 3.033 3.033 0 0 0-1.723 1.097z" transform="translate(-452.991 -214.039)"/>
        <path id="Path_6780" d="M507.119 256.67a3.031 3.031 0 0 1 1.718-1.094 1.942 1.942 0 0 1 2.111 2.182 2.4 2.4 0 0 1-.895 1.51q-5 4.977-9.989 9.965a2.248 2.248 0 0 1-1.944.841 2.914 2.914 0 0 1-1.546-.972c-1.237-1.231-2.464-2.47-3.713-3.692a2.7 2.7 0 0 1-1.026-1.677 1.936 1.936 0 0 1 2.12-2.132 2.563 2.563 0 0 1 1.516.889c.972.966 1.938 1.941 2.916 2.9 2.913-2.908 5.83-5.804 8.732-8.72z" class="cls-2" transform="translate(-480.272 -243.217)"/>
    </g>
</svg>
