<svg xmlns="http://www.w3.org/2000/svg" width="19.786" height="19.784" viewBox="0 0 19.786 19.784">
    <defs>
        <style>
            .cls-1,.cls-2{fill:none;stroke:#fff;stroke-width:1.5px}.cls-1{stroke-linecap:round;stroke-linejoin:round}
        </style>
    </defs>
    <g id="Group_5949" data-name="Group 5949" transform="translate(.751 .75)">
        <g id="Group_163" data-name="Group 163" transform="translate(4.92 4.786)">
            <path id="Path_203" d="M8.444 0a4.222 4.222 0 0 1-4.222 4.222A4.222 4.222 0 0 1 0 0" class="cls-1" data-name="Path 203"/>
        </g>
        <g id="Group_164" data-name="Group 164">
            <path id="Path_204" d="M5.094.182A5.006 5.006 0 0 0 .275 4.658a36.621 36.621 0 0 0 0 8.965C.667 15.805 1.79 17.7 5.093 18.1a44.765 44.765 0 0 0 8.1 0 4.966 4.966 0 0 0 4.817-4.477 36.529 36.529 0 0 0 0-8.964A4.944 4.944 0 0 0 13.19.181a45.23 45.23 0 0 0-8.096.001z" class="cls-2" data-name="Path 204"/>
        </g>
    </g>
</svg>
