<svg xmlns="http://www.w3.org/2000/svg" viewBox="0 0 15 15"><path d="M7.444 10.507h-.09c-2.161-.063-4.037-1.584-4.568-3.696l-.791-3.145c-.182-.725.15-1.499.79-1.841C5.903.155 8.951.144 11.844 1.791c.649.37.956 1.172.729 1.906l-.416 2.678c-.353 2.236-2.101 3.928-4.25 4.113-.151.013-.305.02-.462.02Zm-.017-8.951c-1.355 0-2.739.383-4.171 1.149-.241.129-.364.431-.292.716l.791 3.145c.422 1.681 1.912 2.89 3.622 2.94l.066.501v-.5c.128 0 .253-.005.376-.016 1.663-.144 3.071-1.521 3.348-3.273l.432-2.747c.104-.355-.011-.674-.252-.812-1.292-.735-2.593-1.104-3.921-1.104Z"/><path d="M7.455 13.799c-4.444 0-6.298-3.377-7.007-5.391a1.399 1.399 0 0 1 .181-1.287A1.437 1.437 0 0 1 1.8 6.516h.288c.472 0 .912.231 1.177.62.487.713 1.882 2.371 4.296 2.371 2.395 0 3.723-1.639 4.184-2.343.514-.787 1.798-.819 2.353-.062.27.369.346.829.209 1.264C13.791 10 12.091 13.8 7.455 13.8ZM1.8 7.516a.427.427 0 0 0-.409.561C2.013 9.841 3.627 12.8 7.455 12.8s5.34-2.967 5.898-4.734a.41.41 0 0 0-.062-.371c-.168-.231-.553-.223-.709.018-.549.841-2.138 2.796-5.021 2.796S3.016 8.546 2.439 7.702a.427.427 0 0 0-.352-.185h-.288Z"/><path d="M10.867 14.5a.5.5 0 0 1-.481-.362l-.426-1.493a.5.5 0 1 1 .962-.275l.426 1.493a.5.5 0 0 1-.481.638ZM4.022 14.5a.5.5 0 0 1-.488-.61l.352-1.566a.5.5 0 1 1 .975.219l-.352 1.566a.501.501 0 0 1-.487.391Z"/></svg>