<svg xmlns="http://www.w3.org/2000/svg" viewBox="0 0 15 15"><path d="M5.209 14.5H3.35c-.477 0-.85-.335-.85-.762l.008-9.202c0-.322.274-.584.612-.584h2.335c.337 0 .612.262.612.584l-.008 9.202c0 .427-.374.762-.85.762Zm-1.709-1h1.56l.007-8.548h-1.56L3.5 13.5ZM11.454 14.5H8.941c-.558 0-.996-.382-.996-.87l.01-11.679c0-.487.437-.869.995-.869h2.514c.558 0 .995.382.995.87l-.01 11.678c0 .488-.437.87-.995.87Zm-2.509-1h2.504l.01-11.408-2.504-.01-.01 11.418Z"/><path d="M5.411 4.952H3.164a.617.617 0 0 1-.521-.275l-.148-.228.105-.312.977-3.163C3.849.347 4.732.405 4.962.916l.021.056 1.082 3.444-.133.261a.612.612 0 0 1-.521.275Zm-1.71-1h1.173l-.593-1.881-.58 1.881ZM11.959 3.569H11a.5.5 0 0 1 0-1h.959a.5.5 0 0 1 0 1ZM11.959 5.477H11a.5.5 0 0 1 0-1h.959a.5.5 0 0 1 0 1ZM11.959 7.384H11a.5.5 0 0 1 0-1h.959a.5.5 0 0 1 0 1ZM11.959 9.29H11a.5.5 0 0 1 0-1h.959a.5.5 0 0 1 0 1ZM11.959 11.197H11a.5.5 0 0 1 0-1h.959a.5.5 0 0 1 0 1ZM11.959 13.104H11a.5.5 0 0 1 0-1h.959a.5.5 0 0 1 0 1Z"/></svg>