<svg xmlns="http://www.w3.org/2000/svg" width="155.419" height="155.419" viewBox="0 0 155.419 155.419">
    <g>
        <path fill="#dcf7eb" d="M211.977 89.309A79.945 79.945 0 0 1 245.136 95a79.1 79.1 0 0 1 24.946 16.411A77.724 77.724 0 0 1 250.075 236.7a85.144 85.144 0 0 1-15.05 5.561 79.8 79.8 0 0 1-20.4 2.361 81.392 81.392 0 0 1-18.183-2.377 77.725 77.725 0 0 1-48.9-112.479 77.152 77.152 0 0 1 17.341-21.466 80.122 80.122 0 0 1 20.847-13.02 77.446 77.446 0 0 1 20.109-5.335c2.039-.27 4.088-.471 6.138-.636" transform="translate(-136 -135.999) translate(-2.065 46.767)"/>
        <g>
            <path fill="#1ac977" stroke="rgba(0,0,0,0)" d="M5.317 70.61A5.323 5.323 0 0 1 0 65.292V36.1a5.323 5.323 0 0 1 5.317-5.317H13.3v-12.1a18.675 18.675 0 0 1 37.35 0v12.098h7.684a5.324 5.324 0 0 1 5.321 5.319v29.192a5.323 5.323 0 0 1-5.317 5.317zM4.09 36.1v29.192a1.23 1.23 0 0 0 1.227 1.228h53.021a1.23 1.23 0 0 0 1.227-1.228V36.1a1.228 1.228 0 0 0-1.227-1.227H5.317A1.229 1.229 0 0 0 4.09 36.1zM21.666 8.363a14.493 14.493 0 0 0-4.271 10.314v12.1h29.168v-12.1a14.584 14.584 0 0 0-24.9-10.314zm9.782 47.262a2 2 0 0 1-2-2v-7.452a2 2 0 0 1 2-2h.908a2 2 0 0 1 2 2v7.452a2 2 0 0 1-2 2z" transform="translate(-136 -135.999) translate(180.172 175.265) translate(0 5.18)"/>
            <g>
                <path fill="#9fe8c6" d="M461.052 218.219a20.746 20.746 0 0 1 25.835.689 21.753 21.753 0 0 1 6.379 10.326c.85 2.709.588 5.6.5 8.393a22.116 22.116 0 0 1-3.181 8.276 20.455 20.455 0 0 1-9.568 7.668c-.892.346-1.772.728-2.694.988a17.46 17.46 0 0 1-4.249.543 21.62 21.62 0 0 1-13.516-4.645 18.028 18.028 0 0 1-4.156-4.565 20.5 20.5 0 0 1-2.99-15.41 17.8 17.8 0 0 1 1.367-4.2l.442-.451a4.894 4.894 0 0 1 1-2.33 23.6 23.6 0 0 1 4.836-5.281m18.883 9.321c-2.912 2.927-5.845 5.833-8.763 8.754-.982-.964-1.951-1.942-2.927-2.912a2.573 2.573 0 0 0-1.522-.892 1.943 1.943 0 0 0-2.127 2.139 2.707 2.707 0 0 0 1.029 1.683c1.253 1.226 2.485 2.47 3.727 3.706a2.923 2.923 0 0 0 1.551.976 2.256 2.256 0 0 0 1.951-.844q5.008-5.008 10.025-10a2.407 2.407 0 0 0 .9-1.516 1.949 1.949 0 0 0-2.118-2.19 3.044 3.044 0 0 0-1.731 1.095z" transform="translate(-136 -135.999) translate(180.172 175.265) translate(39.296) translate(-450.306 -210.757)"/>
                <path fill="#fff" d="M461.052 218.219a20.746 20.746 0 0 1 25.835.689 21.753 21.753 0 0 1 6.379 10.326c.85 2.709.588 5.6.5 8.393a22.116 22.116 0 0 1-3.181 8.276 20.455 20.455 0 0 1-9.568 7.668c-.892.346-1.772.728-2.694.988a17.46 17.46 0 0 1-4.249.543 21.62 21.62 0 0 1-13.516-4.645 18.028 18.028 0 0 1-4.156-4.565 20.5 20.5 0 0 1-2.99-15.41 17.8 17.8 0 0 1 1.367-4.2l.442-.451a4.894 4.894 0 0 1 1-2.33 23.6 23.6 0 0 1 4.836-5.281m18.883 9.321c-2.912 2.927-5.845 5.833-8.763 8.754-.982-.964-1.951-1.942-2.927-2.912a2.573 2.573 0 0 0-1.522-.892 1.943 1.943 0 0 0-2.127 2.139 2.707 2.707 0 0 0 1.029 1.683c1.253 1.226 2.485 2.47 3.727 3.706a2.923 2.923 0 0 0 1.551.976 2.256 2.256 0 0 0 1.951-.844q5.008-5.008 10.025-10a2.407 2.407 0 0 0 .9-1.516 1.949 1.949 0 0 0-2.118-2.19 3.044 3.044 0 0 0-1.731 1.095z" transform="translate(-136 -135.999) translate(180.172 175.265) translate(39.296) translate(-452.991 -214.039)"/>
                <path fill="#1ac977" d="M507.174 256.674a3.043 3.043 0 0 1 1.724-1.1 1.949 1.949 0 0 1 2.118 2.19 2.408 2.408 0 0 1-.9 1.516q-5.022 4.995-10.025 10a2.256 2.256 0 0 1-1.951.844 2.924 2.924 0 0 1-1.552-.975c-1.241-1.235-2.473-2.479-3.726-3.706a2.708 2.708 0 0 1-1.029-1.683 1.943 1.943 0 0 1 2.127-2.139 2.572 2.572 0 0 1 1.522.892c.976.97 1.945 1.948 2.927 2.912 2.92-2.918 5.853-5.825 8.765-8.751z" transform="translate(-136 -135.999) translate(180.172 175.265) translate(39.296) translate(-480.23 -243.172)"/>
            </g>
        </g>
    </g>
</svg>
