<svg xmlns="http://www.w3.org/2000/svg" height="20" viewBox="0 -960 960 960" width="20"><path d="M480-480Zm.111 184q-77.04 0-130.575-53.425Q296-402.849 296-479.889q0-77.04 53.425-130.575Q402.849-664 479.889-664q77.04 0 130.575 53.425Q664-557.151 664-480.111q0 77.04-53.425 130.575Q557.151-296 480.111-296Zm0-17.5q68.889 0 117.639-48.861 48.75-48.862 48.75-117.75 0-68.889-48.861-117.639-48.862-48.75-117.75-48.75-68.889 0-117.639 48.861-48.75 48.862-48.75 117.75 0 68.889 48.861 117.639 48.862 48.75 117.75 48.75Z"/></svg>