<svg xmlns="http://www.w3.org/2000/svg" height="20" viewBox="0 -960 960 960" width="20"><path d="M480.235-359q50.515 0 85.64-35.36Q601-429.721 601-480.235q0-50.515-35.36-85.64Q530.279-601 479.765-601q-50.515 0-85.64 35.36Q359-530.279 359-479.765q0 50.515 35.36 85.64Q429.721-359 480.235-359Zm-.176-26q-39.559 0-67.309-27.691T385-479.941q0-39.559 27.691-67.309t67.25-27.75q39.559 0 67.309 27.691t27.75 67.25q0 39.559-27.691 67.309T480.059-385Zm.084 137q-119.739 0-218.441-63.5T109.5-480Q163-585 261.559-648.5T479.857-712q119.739 0 218.441 63.5T850.5-480Q797-375 698.441-311.5T480.143-248ZM480-480Zm0 214.5q110.803 0 205.474-57.406Q780.145-380.311 830.5-480q-50.355-99.689-145.026-157.094Q590.803-694.5 480-694.5q-110.803 0-205.474 57.406Q179.855-579.689 129.5-480q50.355 99.689 145.026 157.094Q369.197-265.5 480-265.5Z"/></svg>