<svg xmlns="http://www.w3.org/2000/svg" width="18.902" height="19.232" viewBox="0 0 18.902 19.232">
    <defs>
        <style>
            .cls-1{fill:#f16422}
        </style>
    </defs>
    <g id="gift-box" transform="translate(-3.485)">
        <g id="Group_14866" data-name="Group 14866" transform="translate(3.485)">
            <g id="Group_14865" data-name="Group 14865" transform="translate(.486 11.513)">
                <path id="Path_14493" d="M226.793 243.186v7.714h6.349a1.5 1.5 0 0 0 1.495-1.495v-6.224z" class="cls-1" data-name="Path 14493" transform="translate(-216.707 -243.186)"/>
                <path id="Path_14494" d="M21.59 243.186h-7.841v6.224a1.5 1.5 0 0 0 1.495 1.495h6.346z" class="cls-1" data-name="Path 14494" transform="translate(-13.749 -243.186)"/>
            </g>
            <path id="Path_14495" d="M20.893 5.661h-2.807a3.46 3.46 0 0 0 .909-.574A2.961 2.961 0 0 0 14.806.9a8.253 8.253 0 0 0-1.319 2.887 1.868 1.868 0 0 0-1.095 0 8.321 8.321 0 0 0-1.329-2.92 2.961 2.961 0 0 0-4.188 4.188 3.557 3.557 0 0 0 .973.606H4.979a1.494 1.494 0 0 0-1.494 1.494v1.271A1.494 1.494 0 0 0 4.979 9.92h6.833v-4.2h2.245v4.2h6.836a1.494 1.494 0 0 0 1.494-1.494V7.155a1.494 1.494 0 0 0-1.494-1.494zm-5.028-3.7a1.465 1.465 0 0 1 2.073 2.069 10.635 10.635 0 0 1-3.017 1.17 2 2 0 0 0-.172-.413 9.944 9.944 0 0 1 1.116-2.83zm-7.931-.036a1.465 1.465 0 0 1 2.07 0 10.06 10.06 0 0 1 1.126 2.858 2.047 2.047 0 0 0-.164.386A10.7 10.7 0 0 1 7.934 4a1.467 1.467 0 0 1 0-2.075z" class="cls-1" data-name="Path 14495" transform="translate(-3.485)"/>
        </g>
    </g>
</svg>
