<svg xmlns="http://www.w3.org/2000/svg" height="20" viewBox="0 -960 960 960" width="20"><path d="M480-219.5 468-231q-95.133-86.184-157.067-146.092Q249-437 214.216-480.902q-34.785-43.901-48-78.473Q153-593.947 153-628.5q0-64.505 45.498-110.002Q243.995-784 308.5-784q49.466 0 93.983 27.5t77.517 81q33.5-53.5 77.75-81T651.5-784q64.505 0 110.002 45.443Q807-693.114 807-628.692q0 34.73-12.716 68.309-12.715 33.58-47.464 76.924-34.749 43.345-96.901 104.366Q587.766-318.072 490-229l-10 9.5Zm0-23.5q91.822-83.573 151.353-141.983 59.531-58.41 94.839-101.714Q761.5-530 775.5-563.286t14-65.075q0-58.639-39.858-98.389-39.859-39.75-97.896-39.75-36.246 0-66.996 15.5-30.75 15.5-75.25 60l-35 41h11l-35-41q-45.5-45.5-76.75-60.5t-65.496-15q-57.037 0-97.396 39.75Q170.5-687 170.5-628.309q0 31.82 13.07 63.638 13.07 31.817 47.25 74.494T325-388.75Q385-330 480-243Zm0-262.5Z"/></svg>