<svg xmlns="http://www.w3.org/2000/svg" width="19.212" height="19.132" viewBox="0 0 19.212 19.132">
    <defs>
        <style>
            .prefix__cls-1{fill:none;stroke:#1dca77;stroke-width:1.4px;stroke-linecap:round;stroke-linejoin:round}
        </style>
    </defs>
    <g id="prefix__Group_33630" data-name="Group 33630" transform="translate(.793 .7)">
        <path id="prefix__Line_710" d="M1.213 1.213L0 0" class="prefix__cls-1" data-name="Line 710" transform="translate(14.686 6.103)"/>
        <path id="prefix__Line_711" d="M2.282 2.282L0 0" class="prefix__cls-1" data-name="Line 711" transform="translate(11.587 7.343)"/>
        <path id="prefix__Line_712" d="M1.213 1.213L0 0" class="prefix__cls-1" data-name="Line 712" transform="translate(10.433 10.528)"/>
        <path id="prefix__Line_713" d="M2.282 2.282L0 0" class="prefix__cls-1" data-name="Line 713" transform="translate(7.194 11.627)"/>
        <path id="prefix__Line_714" d="M1.213 1.213L0 0" class="prefix__cls-1" data-name="Line 714" transform="translate(6.095 14.867)"/>
        <path id="prefix__Path_639" fill="none" stroke="#1dca77" stroke-miterlimit="10" stroke-width="1.4px" d="M-3589.876 2720.93a2.153 2.153 0 0 1-.256-2.722c.132-.226 6.188-6.311 6.708-6.827s3.8-3.8 4.167-4.05a2.148 2.148 0 0 1 2.73.253 21.616 21.616 0 0 1 3.053 3.04 2.218 2.218 0 0 1 .256 2.732c-.115.2-3.3 3.413-4.056 4.176-.806.811-6.73 6.664-6.834 6.716a2.227 2.227 0 0 1-2.73-.26 21.655 21.655 0 0 1-3.038-3.058z" data-name="Path 639" transform="translate(3590.501 -2706.945)"/>
    </g>
</svg>
