<svg xmlns="http://www.w3.org/2000/svg" height="40" viewBox="0 -960 960 960" width="40"><path d="M781.872-156.756 528.98-409.833q-29.483 26.732-69.077 40.59-39.594 13.859-78.245 13.859-95.405 0-161-65.619-65.594-65.618-65.594-160.115 0-94.498 65.226-160.254 65.227-65.756 160.076-65.756 94.849 0 160.902 65.671 66.053 65.671 66.053 160.159 0 41.042-14.988 80.394-14.987 39.353-40.128 68.168l253.231 251.903-23.564 24.077ZM381.346-387.82q81.145 0 137.342-55.784 56.197-55.783 56.197-137.737t-56.197-137.653q-56.197-55.699-137.701-55.699-81.632 0-137.56 55.784Q187.5-663.126 187.5-581.172t55.987 137.653q55.987 55.699 137.859 55.699Z"/></svg>