<svg xmlns="http://www.w3.org/2000/svg" height="40" viewBox="0 -960 960 960" width="40"><path d="M219.871-122.82q-23.328 0-40.189-16.862-16.862-16.861-16.862-40.189V-623.77q0-23.328 16.862-40.19 16.861-16.861 40.189-16.861h105.18q0-64.833 44.583-109.891 44.584-45.058 109.084-45.058 65.037 0 110.634 45.071 45.597 45.07 45.597 109.878h105.18q23.328 0 40.189 16.861 16.862 16.862 16.862 40.19v443.899q0 23.328-16.862 40.189-16.861 16.862-40.189 16.862H219.871Zm0-32.436h520.258q9.23 0 16.923-7.692 7.692-7.693 7.692-16.923V-623.77q0-9.23-7.692-16.923-7.693-7.692-16.923-7.692H219.871q-9.23 0-16.923 7.692-7.692 7.693-7.692 16.923v443.899q0 9.23 7.692 16.923 7.693 7.692 16.923 7.692Zm260.11-295.385q64.891 0 110.827-45.923 45.936-45.922 45.936-110.821h-32.436q0 51.513-36.681 87.91-36.681 36.398-87.654 36.398t-87.371-36.374q-36.397-36.374-36.397-87.934h-32.436q0 64.872 45.661 110.808 45.66 45.936 110.551 45.936Zm-122.494-230.18h245.026q0-51-35.723-86.756-35.724-35.757-86.757-35.757-51.033 0-86.79 35.733-35.756 35.733-35.756 86.78ZM195.256-155.256v-493.129 493.129Z"/></svg>